Coordinates
version=1
nRows=19
nColumns=34
inDegrees=yes

Units are S.I. units (second, meters, Newtons, ...)
If the header above contains a line with 'inDegrees', this indicates whether rotational values are in degrees (yes) or radians (no).

endheader
time	pelvis_tilt	pelvis_list	pelvis_rotation	pelvis_tx	pelvis_ty	pelvis_tz	hip_flexion_r	hip_adduction_r	hip_rotation_r	knee_angle_r	ankle_angle_r	subtalar_angle_r	mtp_angle_r	hip_flexion_l	hip_adduction_l	hip_rotation_l	knee_angle_l	ankle_angle_l	subtalar_angle_l	mtp_angle_l	lumbar_extension	lumbar_bending	lumbar_rotation	arm_flex_r	arm_add_r	arm_rot_r	elbow_flex_r	pro_sup_r	arm_flex_l	arm_add_l	arm_rot_l	elbow_flex_l	pro_sup_l
      8.13333330	     -6.85300791	      1.10424074	     -0.51564671	     -0.61765653	      0.80526752	     -0.17144950	     43.53154614	     -8.40080797	     -6.69756583	     65.20911555	     31.40672895	     -5.31853343	      0.00000000	     44.38715519	     -9.91433636	    -13.18134153	     65.68922147	     30.89489483	      2.94559131	      0.00000000	    -39.99809168	     -0.46847336	     -0.60716261	     17.39178294	     -9.04375035	    -10.27522851	     31.69165503	     96.04466519	     14.08779302	    -14.61139574	      2.14357952	     38.27373363	     99.56135212
      8.15000000	     -7.77439575	      1.23546187	     -0.45050676	     -0.61426545	      0.81351674	     -0.17076592	     43.01770744	     -8.27034442	     -6.78628314	     62.76979041	     30.64722039	     -5.45382014	      0.00000000	     43.73393700	     -9.54164864	    -13.58784029	     63.16031561	     30.27679676	      3.29793709	      0.00000000	    -37.20232749	     -0.64429503	     -0.93308835	     16.35734250	     -8.86719974	     -9.79529254	     31.23906174	     96.20261616	     12.83830251	    -14.60989005	      2.14531957	     37.65606726	     99.61428048
      8.16666670	     -8.58802036	      1.23097638	     -0.51516203	     -0.60942935	      0.81810540	     -0.17099745	     42.40529177	     -8.14028893	     -7.11585333	     60.37197410	     29.82272472	     -5.13382788	      0.00000000	     42.93557521	     -9.26289522	    -13.85139086	     60.57417704	     29.71249540	      3.79568095	      0.00000000	    -34.44149343	     -0.71749295	     -0.98033581	     15.24821533	     -8.80490398	     -9.57747230	     30.92380314	     96.26031691	     11.51503382	    -14.54632421	      2.18127285	     37.30521168	     99.62753530
      8.18333330	     -9.57520270	      1.26332758	     -0.56965452	     -0.60597794	      0.82931003	     -0.17140075	     41.78187294	     -7.86321003	     -7.33362429	     57.35404114	     28.36330138	     -4.98807443	      0.00000000	     42.03985705	     -8.78130350	    -13.98331873	     57.58100812	     28.93685470	      4.18063481	      0.00000000	    -31.39905248	     -0.81026077	     -1.18703348	     14.00611779	     -8.60556243	     -9.30160112	     30.44692296	     96.31854803	     10.04546584	    -14.46455650	      2.20203010	     36.73385222	     99.62726996
      8.20000000	    -10.43036435	      1.27665898	     -0.58023685	     -0.60183546	      0.84063538	     -0.17209093	     40.62944129	     -7.50797935	     -7.45537409	     53.80831149	     26.19659775	     -6.03139948	      0.00000000	     40.80391564	     -8.17084148	    -14.01729018	     54.04783598	     28.03426974	      4.41398029	      0.00000000	    -28.16406306	     -0.82104515	     -1.57486972	     12.96016971	     -8.33160181	     -8.57747003	     29.34681793	     96.43860362	      8.55779125	    -14.30046238	      2.10038345	     35.54227387	     99.56940033
      8.21666670	    -11.06995630	      1.23437184	     -0.66638738	     -0.60103147	      0.84592297	     -0.17262504	     39.49327414	     -7.20135774	     -7.79758225	     50.60855213	     24.81991250	     -5.66715077	      0.00000000	     39.77894357	     -7.76733771	    -14.25772410	     50.93483235	     26.75719595	      4.65012173	      0.00000000	    -25.56127485	     -0.82386338	     -1.63043255	     11.83833815	     -8.23834623	     -8.27893665	     28.93087302	     96.47523226	      7.19277152	    -14.16193996	      2.15483088	     35.16736700	     99.54911450
      8.23333330	    -11.85665842	      1.46342423	     -0.70178568	     -0.59749454	      0.85540101	     -0.17485330	     38.47798021	     -7.13412346	     -7.75937830	     47.28795537	     22.96335132	     -6.36091497	      0.00000000	     38.80825328	     -6.88632905	    -14.48492747	     47.38562513	     24.89745084	      3.83151106	      0.00000000	    -22.66095414	     -1.04506738	     -2.09041237	     10.85454802	     -8.03795233	     -7.49970160	     28.10762406	     96.53497954	      5.80237024	    -13.99939264	      2.15581989	     34.33559818	     99.45332115
      8.25000000	    -12.79536164	      1.54183632	     -0.51027172	     -0.59827628	      0.86158116	     -0.17563517	     37.93489704	     -6.95592569	     -7.70772838	     44.08566069	     21.87149823	     -6.26588828	      0.00000000	     38.34524385	     -6.12795754	    -14.53440684	     44.27812858	     22.87911930	      3.22415882	      0.00000000	    -19.88430520	     -1.08632864	     -2.47908150	      9.79501982	     -8.00324431	     -6.69018749	     27.76548164	     96.54508284	      4.52354671	    -13.95582227	      2.27423986	     34.15699304	     99.35726059
      8.26666670	    -13.50242853	      1.58981546	     -0.09796025	     -0.59443528	      0.87352695	     -0.17699878	     36.71598929	     -6.84067531	     -7.84484361	     40.21840481	     20.13460153	     -6.25795063	      0.00000000	     37.34838763	     -5.25208446	    -14.50362637	     40.58288364	     20.15337003	      2.51974997	      0.00000000	    -17.47023350	     -1.09572036	     -2.86835192	      8.84032559	     -7.94372504	     -6.06286303	     27.50841548	     96.50952759	      3.45873465	    -13.83234272	      2.45208764	     34.00432504	     99.27586593
      8.28333330	    -14.29767062	      1.67888552	      0.19133364	     -0.59074419	      0.87874779	     -0.17804883	     35.56482224	     -6.72477418	     -7.90691242	     36.31812000	     18.51138925	     -6.13651997	      0.00000000	     36.27653738	     -4.27798560	    -14.32256951	     36.41315465	     18.11215345	      2.46943637	      0.00000000	    -14.93531592	     -1.19475227	     -3.08960092	      7.77816142	     -7.92962696	     -5.43796669	     27.16076807	     96.44253861	      2.30826119	    -13.72685376	      2.67006439	     33.93893486	     99.18656176
      8.30000000	    -15.05200868	      1.78320311	      0.41534439	     -0.59357360	      0.88916401	     -0.17941015	     34.31361912	     -6.49713341	     -7.71441122	     31.84504440	     16.56892468	     -6.19649356	      0.00000000	     35.03713097	     -3.17944767	    -14.02133241	     31.62164668	     15.84549471	      2.46620685	      0.00000000	    -12.74217823	     -1.34650211	     -3.18307315	      6.88814041	     -7.97309544	     -4.79241050	     26.87948185	     96.35735225	      1.38012473	    -13.58458012	      2.89987541	     33.96910128	     99.09364058
      8.31666670	    -15.48653063	      1.87035894	      0.38935617	     -0.58993545	      0.89898198	     -0.17889282	     32.30418846	     -6.05897511	     -7.36446742	     26.74484098	     14.31389816	     -6.12668323	      0.00000000	     33.12843011	     -2.24719414	    -13.59993869	     26.58837800	     13.42381148	      2.48366440	      0.00000000	    -10.91019077	     -1.47113963	     -3.11971758	      6.17788726	     -8.00783952	     -4.10413934	     26.50244025	     96.26974350	      0.50404163	    -13.39805634	      3.08375956	     33.94279412	     98.98748720
      8.33333330	    -15.84396461	      2.02836254	      0.27766312	     -0.59132294	      0.90610331	     -0.18036018	     30.46563892	     -5.68259540	     -6.79218488	     21.96458736	     12.05959166	     -6.10812258	      0.00000000	     31.19858463	     -1.31088357	    -13.19249187	     21.70339984	     11.03758256	      2.40669141	      0.00000000	     -9.40955359	     -1.66153749	     -2.98943879	      5.60661822	     -8.08335079	     -3.38241938	     26.39389217	     96.18687998	     -0.23357806	    -13.27658332	      3.24177790	     34.19875663	     98.88917102
      8.35000000	    -16.10974219	      2.18464766	      0.18880778	     -0.58872712	      0.90773936	     -0.18017529	     28.76233345	     -5.36147539	     -6.15120583	     17.75052796	     10.28182358	     -6.04511864	      0.00000000	     29.26027430	     -0.47383786	    -12.65673370	     17.20335244	      9.15500408	      2.38799652	      0.00000000	     -8.04530354	     -1.84588463	     -2.93566485	      5.06240505	     -8.13674320	     -2.64244843	     26.35629597	     96.10696008	     -0.94724132	    -13.22286613	      3.38391309	     34.59602181	     98.80286984
      8.36666670	    -16.36975709	      2.36308861	     -0.02507230	     -0.58721716	      0.91399871	     -0.17998367	     27.24490159	     -5.09373348	     -5.51190233	     14.01351433	      8.58465493	     -5.96991430	      0.00000000	     27.38207294	      0.29821002	    -12.11324385	     12.86455498	      7.57853491	      2.70884230	      0.00000000	     -6.78940841	     -2.06130334	     -2.78870833	      4.62074635	     -8.24037203	     -2.00294582	     26.46640464	     96.05041307	     -1.65139628	    -13.12665003	      3.47748101	     35.00179369	     98.73526185
      8.38333330	    -16.37959353	      2.49137777	     -0.20998929	     -0.58360323	      0.91619384	     -0.18068726	     25.61188580	     -4.89873158	     -5.05838224	     11.00714512	      6.88750213	     -5.92882441	      0.00000000	     25.44383716	      0.94167486	    -11.54806954	      9.03627800	      6.34067136	      2.91172706	      0.00000000	     -5.76775799	     -2.19172191	     -2.67119357	      4.07484539	     -8.33669495	     -1.37728673	     26.46683734	     96.00534668	     -2.37582558	    -13.07282184	      3.55134383	     35.49976791	     98.67948042
      8.40000000	    -16.28727047	      2.51976103	     -0.54109731	     -0.58149084	      0.92362748	     -0.18058844	     23.92406071	     -4.57551041	     -4.54336307	      8.01318886	      5.39597482	     -5.86855512	      0.00000000	     23.50994605	      1.34371925	    -11.03262266	      5.74473499	      5.24652424	      3.16224323	      0.00000000	     -4.95017315	     -2.19899099	     -2.46981865	      3.67030561	     -8.49434552	     -0.76249711	     26.52823755	     95.97471060	     -3.05812566	    -12.92069274	      3.54693353	     35.92119197	     98.62469475
      8.41666670	    -16.40363408	      2.53430865	     -0.70395947	     -0.57752400	      0.92383626	     -0.17983544	     22.45700576	     -4.29706176	     -4.14783768	      5.21814319	      4.23900755	     -5.32711768	      0.00000000	     22.07002757	      1.63714082	    -10.56119859	      3.03241794	      4.34349310	      3.58632513	      0.00000000	     -3.70239988	     -2.26955810	     -2.31915180	      3.06746224	     -8.50852239	     -0.50723763	     26.42010336	     95.96951933	     -3.75792972	    -12.79977091	      3.56971726	     36.09203259	     98.61191562
      8.43333330	    -15.85287144	      2.48018485	     -0.99447662	     -0.58010107	      0.92959735	     -0.18012091	     20.55910359	     -3.98387588	     -3.66104542	      2.74298226	      2.96171383	     -5.41892858	      0.00000000	     20.05208152	      1.82443766	    -10.02378295	      0.43059030	      3.64526103	      3.74375821	      0.00000000	     -3.84663267	     -2.19684536	     -2.15978678	      2.97390178	     -8.68333793	      0.09202085	     26.42123443	     95.96381122	     -4.12069971	    -12.66852034	      3.49482235	     36.56444745	     98.58599757
